<svg width="34" height="29" viewBox="0 0 34 29" fill="none" xmlns="http://www.w3.org/2000/svg">
<path d="M17 1C8.16354 1 1 6.60279 1 13.5142C1 16.5508 2.3836 19.334 4.68319 21.5011C4.75846 21.5719 4.78621 21.679 4.75152 21.7753C3.77948 24.4581 2.00674 26.6403 1.17722 27.5675C1.01868 27.7444 1.16227 28.0202 1.40248 27.9988C6.04437 27.5873 8.86068 25.7589 9.9571 24.893C10.0308 24.8348 10.1306 24.8197 10.2192 24.8525C12.278 25.6069 14.576 26.0289 17 26.0289C25.8365 26.0289 33 20.4261 33 13.5147C33 6.60332 25.8365 1 17 1Z" stroke="#000000" stroke-width="2" stroke-miterlimit="10"/>
</svg>
