<svg width="61" height="49" viewBox="0 0 61 49" fill="none" xmlns="http://www.w3.org/2000/svg">
<path d="M31 1C22.1635 1 15 6.60279 15 13.5142C15 16.5508 16.3836 19.334 18.6832 21.5011C18.7585 21.5719 18.7862 21.679 18.7515 21.7753C17.7795 24.4581 16.0067 26.6403 15.1772 27.5675C15.0187 27.7444 15.1623 28.0202 15.4025 27.9988C20.0444 27.5873 22.8607 25.7589 23.9571 24.893C24.0308 24.8348 24.1306 24.8197 24.2192 24.8525C26.278 25.6069 28.576 26.0289 31 26.0289C39.8365 26.0289 47 20.4261 47 13.5147C47 6.60332 39.8365 1 31 1Z" stroke="#1976D2" stroke-width="2" stroke-miterlimit="10"/>
<path d="M8.20739 40.1108H6.87784C6.8267 39.8267 6.73153 39.5767 6.59233 39.3608C6.45313 39.1449 6.28267 38.9616 6.08097 38.8111C5.87926 38.6605 5.65341 38.5469 5.40341 38.4702C5.15625 38.3935 4.89347 38.3551 4.61506 38.3551C4.11222 38.3551 3.66193 38.4815 3.2642 38.7344C2.86932 38.9872 2.55682 39.358 2.3267 39.8466C2.09943 40.3352 1.9858 40.9318 1.9858 41.6364C1.9858 42.3466 2.09943 42.946 2.3267 43.4347C2.55682 43.9233 2.87074 44.2926 3.26847 44.5426C3.66619 44.7926 4.11364 44.9176 4.6108 44.9176C4.88636 44.9176 5.14773 44.8807 5.39489 44.8068C5.64489 44.7301 5.87074 44.6179 6.07244 44.4702C6.27415 44.3224 6.4446 44.142 6.58381 43.929C6.72585 43.7131 6.82386 43.4659 6.87784 43.1875L8.20739 43.1918C8.13636 43.6207 7.99858 44.0156 7.79403 44.3764C7.59233 44.7344 7.33239 45.044 7.0142 45.3054C6.69886 45.5639 6.33807 45.7642 5.93182 45.9062C5.52557 46.0483 5.08239 46.1193 4.60227 46.1193C3.84659 46.1193 3.1733 45.9403 2.58239 45.5824C1.99148 45.2216 1.52557 44.706 1.18466 44.0355C0.846591 43.3651 0.677557 42.5653 0.677557 41.6364C0.677557 40.7045 0.848011 39.9048 1.18892 39.2372C1.52983 38.5668 1.99574 38.0526 2.58665 37.6946C3.17756 37.3338 3.84943 37.1534 4.60227 37.1534C5.06534 37.1534 5.49716 37.2202 5.89773 37.3537C6.30114 37.4844 6.66335 37.6776 6.98438 37.9332C7.3054 38.1861 7.57102 38.4957 7.78125 38.8622C7.99148 39.2259 8.13352 39.642 8.20739 40.1108ZM12.4379 46.1321C11.8242 46.1321 11.2887 45.9915 10.8313 45.7102C10.3739 45.429 10.0188 45.0355 9.76598 44.5298C9.51314 44.0241 9.38672 43.4332 9.38672 42.7571C9.38672 42.0781 9.51314 41.4844 9.76598 40.9759C10.0188 40.4673 10.3739 40.0724 10.8313 39.7912C11.2887 39.5099 11.8242 39.3693 12.4379 39.3693C13.0515 39.3693 13.587 39.5099 14.0444 39.7912C14.5018 40.0724 14.8569 40.4673 15.1097 40.9759C15.3626 41.4844 15.489 42.0781 15.489 42.7571C15.489 43.4332 15.3626 44.0241 15.1097 44.5298C14.8569 45.0355 14.5018 45.429 14.0444 45.7102C13.587 45.9915 13.0515 46.1321 12.4379 46.1321ZM12.4421 45.0625C12.8398 45.0625 13.1694 44.9574 13.4308 44.7472C13.6921 44.5369 13.8853 44.2571 14.0103 43.9077C14.1381 43.5582 14.2021 43.1733 14.2021 42.7528C14.2021 42.3352 14.1381 41.9517 14.0103 41.6023C13.8853 41.25 13.6921 40.9673 13.4308 40.7543C13.1694 40.5412 12.8398 40.4347 12.4421 40.4347C12.0415 40.4347 11.7092 40.5412 11.445 40.7543C11.1836 40.9673 10.989 41.25 10.8612 41.6023C10.7362 41.9517 10.6737 42.3352 10.6737 42.7528C10.6737 43.1733 10.7362 43.5582 10.8612 43.9077C10.989 44.2571 11.1836 44.5369 11.445 44.7472C11.7092 44.9574 12.0415 45.0625 12.4421 45.0625ZM18.1854 42.1136V46H16.9112V39.4545H18.1342V40.5199H18.2152C18.3658 40.1733 18.6016 39.8949 18.9226 39.6847C19.2464 39.4744 19.6541 39.3693 20.1456 39.3693C20.5916 39.3693 20.9822 39.4631 21.3175 39.6506C21.6527 39.8352 21.9126 40.1108 22.0973 40.4773C22.282 40.8437 22.3743 41.2969 22.3743 41.8366V46H21.1001V41.9901C21.1001 41.5156 20.9766 41.1449 20.7294 40.8778C20.4822 40.608 20.1428 40.473 19.7109 40.473C19.4155 40.473 19.1527 40.5369 18.9226 40.6648C18.6953 40.7926 18.5149 40.9801 18.3814 41.2273C18.2507 41.4716 18.1854 41.767 18.1854 42.1136ZM29.4482 39.4545L27.0746 46H25.7109L23.3331 39.4545H24.701L26.3587 44.4915H26.4268L28.0803 39.4545H29.4482ZM33.244 46.1321C32.5991 46.1321 32.0437 45.9943 31.5778 45.7188C31.1147 45.4403 30.7567 45.0497 30.5039 44.5469C30.2539 44.0412 30.1289 43.4489 30.1289 42.7699C30.1289 42.0994 30.2539 41.5085 30.5039 40.9972C30.7567 40.4858 31.109 40.0866 31.5607 39.7997C32.0153 39.5128 32.5465 39.3693 33.1545 39.3693C33.5238 39.3693 33.8817 39.4304 34.2283 39.5526C34.5749 39.6747 34.886 39.8665 35.1616 40.1278C35.4371 40.3892 35.6545 40.7287 35.8136 41.1463C35.9727 41.5611 36.0522 42.0653 36.0522 42.6591V43.1108H30.8491V42.1562H34.8036C34.8036 41.821 34.7354 41.5241 34.5991 41.2656C34.4627 41.0043 34.271 40.7983 34.0238 40.6477C33.7795 40.4972 33.4925 40.4219 33.163 40.4219C32.805 40.4219 32.4925 40.5099 32.2255 40.6861C31.9613 40.8594 31.7567 41.0866 31.6119 41.3679C31.4698 41.6463 31.3988 41.9489 31.3988 42.2756V43.0213C31.3988 43.4588 31.4755 43.831 31.6289 44.1378C31.7852 44.4446 32.0025 44.679 32.2809 44.8409C32.5593 45 32.8846 45.0795 33.2567 45.0795C33.4982 45.0795 33.7184 45.0455 33.9173 44.9773C34.1161 44.9062 34.288 44.8011 34.4329 44.6619C34.5778 44.5227 34.6886 44.3509 34.7653 44.1463L35.9712 44.3636C35.8746 44.7187 35.7013 45.0298 35.4513 45.2969C35.2042 45.5611 34.8931 45.767 34.5181 45.9148C34.146 46.0597 33.7212 46.1321 33.244 46.1321ZM37.4659 46V39.4545H38.6974V40.4943H38.7656C38.8849 40.142 39.0952 39.8651 39.3963 39.6634C39.7003 39.4588 40.044 39.3565 40.4276 39.3565C40.5071 39.3565 40.6009 39.3594 40.7088 39.3651C40.8196 39.3707 40.9062 39.3778 40.9688 39.3864V40.6051C40.9176 40.5909 40.8267 40.5753 40.696 40.5582C40.5653 40.5384 40.4347 40.5284 40.304 40.5284C40.0028 40.5284 39.7344 40.5923 39.4986 40.7202C39.2656 40.8452 39.081 41.0199 38.9446 41.2443C38.8082 41.4659 38.7401 41.7187 38.7401 42.0028V46H37.4659ZM46.9762 41.0526L45.8214 41.2571C45.7731 41.1094 45.6964 40.9687 45.5913 40.8352C45.489 40.7017 45.3498 40.5923 45.1737 40.5071C44.9975 40.4219 44.7773 40.3793 44.5131 40.3793C44.1523 40.3793 43.8512 40.4602 43.6097 40.6222C43.3683 40.7812 43.2475 40.9872 43.2475 41.2401C43.2475 41.4588 43.3285 41.6349 43.4904 41.7685C43.6523 41.902 43.9137 42.0114 44.2745 42.0966L45.3143 42.3352C45.9165 42.4744 46.3654 42.6889 46.6609 42.9787C46.9563 43.2685 47.104 43.6449 47.104 44.108C47.104 44.5 46.9904 44.8494 46.7631 45.1562C46.5387 45.4602 46.2248 45.6989 45.8214 45.8722C45.4208 46.0455 44.9563 46.1321 44.4279 46.1321C43.695 46.1321 43.0969 45.9759 42.6339 45.6634C42.1708 45.348 41.8867 44.9006 41.7816 44.321L43.0131 44.1335C43.0898 44.4545 43.2475 44.6974 43.4862 44.8622C43.7248 45.0241 44.0359 45.1051 44.4194 45.1051C44.837 45.1051 45.1708 45.0185 45.4208 44.8452C45.6708 44.669 45.7958 44.4545 45.7958 44.2017C45.7958 43.9972 45.7191 43.8253 45.5657 43.6861C45.4151 43.5469 45.1836 43.4418 44.8711 43.3707L43.7631 43.1278C43.1523 42.9886 42.7006 42.767 42.408 42.4631C42.1183 42.1591 41.9734 41.7741 41.9734 41.3082C41.9734 40.9219 42.0813 40.5838 42.2972 40.294C42.5131 40.0043 42.8114 39.7784 43.1921 39.6165C43.5728 39.4517 44.0089 39.3693 44.5004 39.3693C45.2077 39.3693 45.7646 39.5227 46.1708 39.8295C46.5771 40.1335 46.8455 40.5412 46.9762 41.0526ZM50.4098 46.1449C49.995 46.1449 49.62 46.0682 49.2848 45.9148C48.9496 45.7585 48.6839 45.5327 48.4879 45.2372C48.2947 44.9418 48.1982 44.5795 48.1982 44.1506C48.1982 43.7812 48.2692 43.4773 48.4112 43.2386C48.5533 43 48.745 42.8111 48.9865 42.6719C49.228 42.5327 49.4979 42.4276 49.7962 42.3565C50.0945 42.2855 50.3984 42.2315 50.7081 42.1946C51.1001 42.1491 51.4183 42.1122 51.6626 42.0838C51.907 42.0526 52.0845 42.0028 52.1953 41.9347C52.3061 41.8665 52.3615 41.7557 52.3615 41.6023V41.5724C52.3615 41.2003 52.2564 40.9119 52.0462 40.7074C51.8388 40.5028 51.5291 40.4006 51.1172 40.4006C50.6882 40.4006 50.3501 40.4957 50.103 40.6861C49.8587 40.8736 49.6896 41.0824 49.5959 41.3125L48.3984 41.0398C48.5405 40.642 48.7479 40.321 49.0206 40.0767C49.2962 39.8295 49.6129 39.6506 49.9709 39.5398C50.3288 39.4261 50.7053 39.3693 51.1001 39.3693C51.3615 39.3693 51.6385 39.4006 51.9311 39.4631C52.2266 39.5227 52.5021 39.6335 52.7578 39.7955C53.0163 39.9574 53.228 40.1889 53.3928 40.4901C53.5575 40.7884 53.6399 41.1761 53.6399 41.6534V46H52.3956V45.1051H52.3445C52.2621 45.2699 52.1385 45.4318 51.9737 45.5909C51.8089 45.75 51.5973 45.8821 51.3388 45.9872C51.0803 46.0923 50.7706 46.1449 50.4098 46.1449ZM50.6868 45.1222C51.0391 45.1222 51.3402 45.0526 51.5902 44.9134C51.843 44.7741 52.0348 44.5923 52.1655 44.3679C52.299 44.1406 52.3658 43.8977 52.3658 43.6392V42.7955C52.3203 42.8409 52.2322 42.8835 52.1016 42.9233C51.9737 42.9602 51.8274 42.9929 51.6626 43.0213C51.4979 43.0469 51.3374 43.071 51.1811 43.0938C51.0249 43.1136 50.8942 43.1307 50.7891 43.1449C50.5419 43.1761 50.3161 43.2287 50.1115 43.3026C49.9098 43.3764 49.7479 43.483 49.6257 43.6222C49.5064 43.7585 49.4467 43.9403 49.4467 44.1676C49.4467 44.483 49.5632 44.7216 49.7962 44.8835C50.0291 45.0426 50.326 45.1222 50.6868 45.1222ZM60.2418 41.0526L59.087 41.2571C59.0387 41.1094 58.962 40.9687 58.8569 40.8352C58.7546 40.7017 58.6154 40.5923 58.4393 40.5071C58.2631 40.4219 58.043 40.3793 57.7788 40.3793C57.418 40.3793 57.1168 40.4602 56.8754 40.6222C56.6339 40.7812 56.5131 40.9872 56.5131 41.2401C56.5131 41.4588 56.5941 41.6349 56.756 41.7685C56.918 41.902 57.1793 42.0114 57.5401 42.0966L58.5799 42.3352C59.1822 42.4744 59.631 42.6889 59.9265 42.9787C60.2219 43.2685 60.3697 43.6449 60.3697 44.108C60.3697 44.5 60.256 44.8494 60.0288 45.1562C59.8043 45.4602 59.4904 45.6989 59.087 45.8722C58.6864 46.0455 58.2219 46.1321 57.6935 46.1321C56.9606 46.1321 56.3626 45.9759 55.8995 45.6634C55.4364 45.348 55.1523 44.9006 55.0472 44.321L56.2788 44.1335C56.3555 44.4545 56.5131 44.6974 56.7518 44.8622C56.9904 45.0241 57.3015 45.1051 57.685 45.1051C58.1026 45.1051 58.4364 45.0185 58.6864 44.8452C58.9364 44.669 59.0614 44.4545 59.0614 44.2017C59.0614 43.9972 58.9847 43.8253 58.8313 43.6861C58.6808 43.5469 58.4492 43.4418 58.1367 43.3707L57.0288 43.1278C56.418 42.9886 55.9663 42.767 55.6737 42.4631C55.3839 42.1591 55.239 41.7741 55.239 41.3082C55.239 40.9219 55.3469 40.5838 55.5629 40.294C55.7788 40.0043 56.0771 39.7784 56.4577 39.6165C56.8384 39.4517 57.2745 39.3693 57.766 39.3693C58.4734 39.3693 59.0302 39.5227 59.4364 39.8295C59.8427 40.1335 60.1112 40.5412 60.2418 41.0526Z" fill="#1976D2"/>
</svg>
