<svg width="27" height="29" viewBox="0 0 27 29" fill="none" xmlns="http://www.w3.org/2000/svg">
<path d="M24.5473 5.26294L23.7726 5.8953C24.1938 6.41123 24.5777 6.9575 24.9198 7.53409L25.1743 7.97809C25.4261 8.43866 25.6508 8.91075 25.8463 9.3972L25.9852 9.7796C26.0181 9.87014 25.9972 9.99831 25.8941 10.0921L25.8941 10.0921L25.8895 10.0964L23.4669 12.3284L23.0856 12.6797L23.1529 13.1937C23.2091 13.6233 23.2396 14.0614 23.2396 14.5028C23.2396 14.9442 23.2091 15.3824 23.1529 15.812L23.0856 16.326L23.4669 16.6772L25.8895 18.9093L25.8895 18.9093L25.8941 18.9135C25.9972 19.0074 26.0181 19.1355 25.9852 19.2261L26.9252 19.5675M24.5473 5.26294L23.7743 5.89734C23.7229 5.83475 23.6126 5.78783 23.4832 5.82953L23.4828 5.82965L20.3664 6.83238L19.8631 6.99432L19.4459 6.6696C18.7647 6.13939 18.0136 5.69776 17.2138 5.36461L16.7313 5.16364L16.6209 4.65281L15.9217 1.4188C15.9217 1.41866 15.9216 1.41852 15.9216 1.41837C15.8871 1.25999 15.7853 1.19608 15.7178 1.18493L15.7143 1.18434C14.9969 1.06329 14.2581 1 13.5028 1C12.7474 1 12.0111 1.06329 11.2984 1.18879L11.2878 1.19065L11.2878 1.19059C11.2202 1.20175 11.1184 1.26575 11.0839 1.4244C11.0839 1.42442 11.0839 1.42444 11.0839 1.42446L10.3847 4.65848L10.2742 5.16931L9.7918 5.37027C8.992 5.70343 8.24091 6.14506 7.55968 6.67526L7.14246 6.99998L6.63919 6.83805L3.52278 5.83531L3.52243 5.8352C3.38551 5.79109 3.28164 5.84086 3.23564 5.8977L3.23299 5.90097L3.23298 5.90097C2.81183 6.4169 2.42787 6.96317 2.08577 7.53976L1.83137 7.9837C1.51473 8.56277 1.241 9.16005 1.01418 9.78118L0.0748472 9.43817L1.01475 9.7796C0.981866 9.87014 1.00278 9.99831 1.10589 10.0921L1.11053 10.0964L1.11052 10.0964L3.53314 12.3284L3.91437 12.6797L3.84709 13.1937C3.79086 13.6233 3.76044 14.0614 3.76044 14.5028C3.76044 14.944 3.79083 15.3826 3.84729 15.8192L3.91365 16.3323L3.53314 16.6829L1.11052 18.915L1.10591 18.9192L1.10589 18.9192C1.00295 19.0129 0.981936 19.1408 1.01459 19.2313C1.24132 19.852 1.51492 20.4489 1.83137 21.0276L2.08578 21.4716C2.42788 22.0482 2.81184 22.5944 3.23298 23.1104L2.45831 23.7427M24.5473 5.26294C24.2172 4.86071 23.6689 4.71909 23.1765 4.87771L25.7838 7.03047C25.4145 6.40731 25.0005 5.81813 24.5473 5.26294ZM2.45831 23.7427L3.23131 23.1083C3.2826 23.1708 3.39265 23.2177 3.52185 23.1763C3.52204 23.1763 3.52223 23.1762 3.52243 23.1761L6.63152 22.1683L7.13577 22.0048L7.55408 22.3304C8.23532 22.8606 8.98641 23.3022 9.7862 23.6354L10.2687 23.8364L10.3791 24.3472L11.0783 27.5812C11.1127 27.7399 11.2146 27.8039 11.2822 27.8151L11.2857 27.8157C12.0031 27.9367 12.7419 28 13.4972 28C14.2525 28 14.9913 27.9367 15.7087 27.8157L15.7122 27.8151C15.7798 27.8039 15.8816 27.74 15.9161 27.5814C15.9161 27.5814 15.9161 27.5813 15.9161 27.5812L16.6153 24.3472L16.7258 23.8364L17.2082 23.6354C18.008 23.3022 18.7591 22.8606 19.4403 22.3304L19.8575 22.0057L20.3608 22.1676L23.4772 23.1704L23.4776 23.1705C23.6145 23.2146 23.7184 23.1648 23.7644 23.108L23.767 23.1047C24.1882 22.5888 24.5721 22.0425 24.9142 21.4659L25.1686 21.0219C25.4853 20.4429 25.759 19.8456 25.9858 19.2245L26.9252 19.5675M2.45831 23.7427C2.78841 24.145 3.33672 24.2866 3.82908 24.128L6.93989 23.1196L1.22182 21.9752C1.59109 22.5984 2.00512 23.1875 2.45831 23.7427ZM26.9252 19.5675C27.1042 19.0746 26.9531 18.5251 26.5671 18.1739L26.0411 21.5106C26.3824 20.8875 26.679 20.2416 26.9252 19.5675ZM2.45831 5.26861C2.78841 4.86071 3.33672 4.72475 3.82908 4.88338L2.45831 5.26861ZM13.5028 20.035C16.5398 20.035 18.9788 17.5473 18.9788 14.5028C18.9788 11.4583 16.5398 8.9707 13.5028 8.9707C10.4658 8.9707 8.02681 11.4583 8.02681 14.5028C8.02681 17.5473 10.4658 20.035 13.5028 20.035Z" stroke="black" stroke-width="2"/>
</svg>
