<svg width="63" height="63" viewBox="0 0 63 63" fill="none" xmlns="http://www.w3.org/2000/svg">
<path d="M60.3299 4.3245C63.0246 7.01553 63.0246 11.3788 60.3299 14.0698L56.6385 17.7735L44.5799 5.71739L48.2836 2.0186C50.9783 -0.672867 55.3342 -0.672867 58.0289 2.0186L60.3299 4.3245ZM21.2133 29.0938L41.799 8.50071L53.8576 20.5544L33.2596 41.1401C32.509 41.903 31.5861 42.469 30.5648 42.8136L19.6383 46.4557C18.4693 46.8003 17.4111 46.5296 16.6113 45.6313C15.8238 44.9423 15.5531 43.7733 15.8977 42.7151L19.5398 31.7886C19.8844 30.7673 20.4504 29.8444 21.2133 29.0938ZM23.625 7.11766C25.8029 7.11766 27.5625 8.99166 27.5625 11.0552C27.5625 13.3438 25.8029 14.9927 23.625 14.9927H11.8125C9.63826 14.9927 7.875 16.863 7.875 18.9302V50.5409C7.875 52.7188 9.63826 54.4784 11.8125 54.4784H43.3125C45.4904 54.4784 47.25 52.7188 47.25 50.5409V38.6177C47.25 36.5505 49.0096 34.6802 51.1875 34.6802C53.3654 34.6802 55.125 36.5505 55.125 38.6177V50.5409C55.125 57.0624 49.834 62.3534 43.3125 62.3534H11.8125C5.28855 62.3534 0 57.0624 0 50.5409V18.9302C0 12.4087 5.28855 7.11766 11.8125 7.11766H23.625Z" fill="#B7B4B4"/>
</svg>
