<svg width="31" height="31" viewBox="0 0 31 31" fill="none" xmlns="http://www.w3.org/2000/svg">
<path fill-rule="evenodd" clip-rule="evenodd" d="M15.5 31C24.0604 31 31 24.0604 31 15.5C31 6.93959 24.0604 0 15.5 0C6.93959 0 0 6.93959 0 15.5C0 24.0604 6.93959 31 15.5 31ZM15.5 15.0387C18.0478 15.0387 20.1131 12.9733 20.1131 10.4256C20.1131 7.87785 18.0478 5.8125 15.5 5.8125C12.9523 5.8125 10.8869 7.87785 10.8869 10.4256C10.8869 12.9733 12.9523 15.0387 15.5 15.0387ZM15.5 25.1344C20.4935 25.1344 24.5416 22.4546 24.5416 19.1488C24.5416 18.3902 23.9122 17.826 23.1698 17.6703C20.7895 17.1713 17.9944 16.8839 15.0045 16.8839C12.5625 16.8839 10.2506 17.0756 8.18845 17.4177C7.2739 17.5695 6.45828 18.2217 6.45828 19.1488C6.45828 22.4546 10.5064 25.1344 15.5 25.1344Z" fill="white"/>
</svg>
