<svg width="39" height="35" viewBox="0 0 39 35" fill="none" xmlns="http://www.w3.org/2000/svg">
<path d="M7.14196 34.2219H11.9033C13.2201 34.2219 14.2839 33.158 14.2839 31.8412C14.2839 30.5244 13.2201 29.4605 11.9033 29.4605H7.14196C5.8274 29.4605 4.76131 28.3945 4.76131 27.0799V8.03466C4.76131 6.7201 5.8274 5.65401 7.14196 5.65401H11.9033C13.2201 5.65401 14.2839 4.58792 14.2839 3.27335C14.2839 1.95879 13.2201 0.8927 11.9033 0.8927H7.14196C3.19752 0.8927 0 4.09022 0 8.03466V27.0799C0 31.0229 3.19752 34.2219 7.14196 34.2219ZM37.5548 16.2554L26.8344 6.13758C26.3155 5.64821 25.5548 5.51452 24.9002 5.79581C24.2453 6.07829 23.8207 6.72352 23.8207 7.43623L23.8138 12.7927L14.2912 12.7926C12.9752 12.7926 11.9091 13.8587 11.9091 15.1733V19.9346C11.9091 21.2492 12.9759 22.3152 14.2912 22.3152L23.8138 22.3153L23.8207 27.6048C23.8207 28.3174 24.2453 28.9625 24.9002 29.2452C25.5551 29.5265 26.3159 29.3928 26.8344 28.9035L37.5548 18.7857C38.269 18.1822 38.269 16.9324 37.5548 16.2554Z" fill="white"/>
</svg>
