<svg width="28" height="33" viewBox="0 0 28 33" fill="none" xmlns="http://www.w3.org/2000/svg">
<path d="M15.9999 2.05331V3.2853C20.4607 4.23689 23.8216 8.38009 23.8216 13.3465V14.5529C23.8216 17.5751 24.8787 20.4818 26.7853 22.7405L27.2375 23.273C27.7508 23.8826 27.8791 24.7424 27.5613 25.4803C27.2436 26.2183 26.547 26.6931 25.777 26.6931H2.31186C1.54191 26.6931 0.843516 26.2183 0.528081 25.4803C0.212646 24.7424 0.338813 23.8826 0.850421 23.273L1.30359 22.7405C3.21258 20.4818 4.26729 17.5751 4.26729 14.5529V13.3465C4.26729 8.38009 7.57319 4.23689 12.089 3.2853V2.05331C12.089 0.9195 12.9628 0 14.0444 0C15.126 0 15.9999 0.9195 15.9999 2.05331ZM14.0444 32.853C13.0056 32.853 12.0096 32.4231 11.2763 31.6531C10.543 30.8831 10.1336 29.7795 10.1336 28.7464H17.9553C17.9553 29.7795 17.5459 30.8831 16.8126 31.6531C16.0793 32.4231 15.0283 32.853 14.0444 32.853Z" fill="white"/>
</svg>
