<svg width="41" height="42" viewBox="0 0 41 42" fill="none" xmlns="http://www.w3.org/2000/svg">
<path fill-rule="evenodd" clip-rule="evenodd" d="M0.646301 0.615852C-0.203399 1.44874 -0.21703 2.81274 0.615853 3.66244L10.6842 13.9341C10.3825 14.9458 10.2204 16.0232 10.2204 17.1409V18.3873C10.2204 21.5099 9.13066 24.5132 7.15827 26.8468L6.69005 27.3971C6.16145 28.0269 6.03109 28.9153 6.357 29.6777C6.68291 30.4401 7.4045 30.9307 8.20003 30.9307H27.3445L36.634 40.4078C37.4669 41.2575 38.8309 41.2712 39.6806 40.4383C40.5303 39.6054 40.5439 38.2414 39.7111 37.3917L33.2189 30.7685C33.2585 30.7512 33.2975 30.7326 33.3359 30.7127L12.9261 9.89091C12.8989 9.92151 12.8719 9.95228 12.845 9.98322L3.69288 0.646301C2.86 -0.203398 1.496 -0.217031 0.646301 0.615852ZM33.9535 27.3971C34.4782 28.0202 34.6135 28.8964 34.2984 29.6533L13.9474 8.89135C15.1828 7.84082 16.6655 7.09035 18.3019 6.74552V5.47262C18.3019 4.30115 19.2047 3.35111 20.3223 3.35111C21.4398 3.35111 22.3426 4.30115 22.3426 5.47262V6.74552C26.9516 7.72871 30.4241 12.0095 30.4241 17.1409V18.3873C30.4241 21.5099 31.5164 24.5132 33.4863 26.8468L33.9535 27.3971ZM20.3223 37.2953C19.2489 37.2953 18.2198 36.8511 17.4622 36.0555C16.7045 35.2599 16.2815 34.1196 16.2815 33.0522H24.363C24.363 34.1196 23.94 35.2599 23.1824 36.0555C22.4247 36.8511 21.3388 37.2953 20.3223 37.2953Z" fill="white"/>
</svg>
