<svg width="34" height="34" viewBox="0 0 34 34" fill="none" xmlns="http://www.w3.org/2000/svg">
<path d="M33.7095 16.9572C33.7095 17.0744 33.6509 17.1329 33.6509 17.1915C33.6835 19.5675 31.5223 21.1233 29.1463 21.1233H22.7734C21.0484 21.1233 19.6488 22.5815 19.6488 24.3065C19.6488 24.5279 19.6748 24.7427 19.7139 24.951C19.8571 25.615 20.137 26.2008 20.4234 26.8974C20.814 27.7957 21.2111 28.6875 21.2111 29.6314C21.2111 31.7079 19.805 33.5827 17.735 33.6673C17.5071 33.6738 17.2728 33.6804 17.045 33.6804C7.84037 33.6804 0.380371 26.2204 0.380371 17.0158C0.380371 7.8112 7.84037 0.351196 17.045 0.351196C26.2495 0.351196 33.7095 7.8112 33.7095 17.0158V16.9572ZM6.62959 16.9572C5.47934 16.9572 4.54652 17.9466 4.54652 19.0403C4.54652 20.251 5.47934 21.1233 6.62959 21.1233C7.78179 21.1233 8.71266 20.251 8.71266 19.0403C8.71266 17.9466 7.78179 16.9572 6.62959 16.9572ZM8.71266 12.791C9.86486 12.791 10.7957 11.9188 10.7957 10.708C10.7957 9.61436 9.86486 8.6249 8.71266 8.6249C7.56046 8.6249 6.62959 9.61436 6.62959 10.708C6.62959 11.9188 7.56046 12.791 8.71266 12.791ZM17.045 4.45875C15.8928 4.45875 14.9619 5.45017 14.9619 6.54183C14.9619 7.75261 15.8928 8.6249 17.045 8.6249C18.1971 8.6249 19.128 7.75261 19.128 6.54183C19.128 5.45017 18.1971 4.45875 17.045 4.45875ZM25.3772 12.791C26.5294 12.791 27.4603 11.9188 27.4603 10.708C27.4603 9.61436 26.5294 8.6249 25.3772 8.6249C24.225 8.6249 23.2942 9.61436 23.2942 10.708C23.2942 11.9188 24.225 12.791 25.3772 12.791Z" fill="white"/>
</svg>
