<svg width="30" height="30" viewBox="0 0 30 30" fill="none" xmlns="http://www.w3.org/2000/svg">
<path fill-rule="evenodd" clip-rule="evenodd" d="M14.8584 0C6.65234 0 0 6.65234 0 14.8584C0 19.4938 2.12261 23.6334 5.44888 26.3583V26.3639L5.61908 26.4956C8.15553 28.5121 11.3663 29.7168 14.8584 29.7168C18.3496 29.7168 21.5596 28.5128 24.0957 26.4973L24.268 26.364V26.3582C27.5942 23.6334 29.7168 19.4938 29.7168 14.8584C29.7168 6.65234 23.0645 0 14.8584 0ZM24.0778 23.5749C26.2459 21.2975 27.5767 18.2156 27.5767 14.823C27.5767 7.81174 21.8929 2.12799 14.8817 2.12799C7.87039 2.12799 2.18664 7.81174 2.18664 14.823C2.18664 18.1962 3.5022 21.262 5.64824 23.5356C6.01695 21.9542 6.87693 20.5616 8.05854 19.5274C9.38748 18.2582 11.1882 17.4788 13.1709 17.4788H16.5924C18.847 17.4788 20.8663 18.4866 22.2243 20.0763C23.1232 21.0428 23.7747 22.2426 24.0778 23.5749ZM11.7954 11.5627C11.7954 9.85821 13.1772 8.47645 14.8817 8.47645C16.5862 8.47645 17.9679 9.85821 17.9679 11.5627C17.9679 13.2672 16.5862 14.649 14.8817 14.649C13.1772 14.649 11.7954 13.2672 11.7954 11.5627ZM9.19222 20.7679C8.11644 21.8085 7.44762 23.2672 7.44762 24.8821V25.1135C9.53716 26.6262 12.1042 27.5177 14.8817 27.5177C17.659 27.5177 20.2261 26.6259 22.3157 25.1134V24.8821V24.8821C22.3159 23.477 21.8096 22.1901 20.9694 21.1941C19.8828 20.0398 18.3407 19.3191 16.6303 19.3191H13.0866C11.5978 19.3191 10.2365 19.8651 9.19222 20.7679ZM9.95196 11.4817C9.95196 8.7719 12.1487 6.5752 14.8584 6.5752C17.5682 6.5752 19.7649 8.7719 19.7649 11.4817C19.7649 14.1914 17.5682 16.3881 14.8584 16.3881C12.1487 16.3881 9.95196 14.1914 9.95196 11.4817Z" fill="black"/>
</svg>
