<svg width="31" height="50" viewBox="0 0 31 50" fill="none" xmlns="http://www.w3.org/2000/svg">
<path fill-rule="evenodd" clip-rule="evenodd" d="M15.8584 -1.36495e-05C7.65234 -1.36495e-05 1.00001 6.65233 1.00001 14.8584C1.00001 19.4938 3.12262 23.6334 6.44888 26.3582V26.3639L6.61908 26.4956C9.15553 28.5121 12.3663 29.7168 15.8584 29.7168C19.3496 29.7168 22.5596 28.5128 25.0957 26.4973L25.268 26.364V26.3582C28.5942 23.6333 30.7168 19.4938 30.7168 14.8584C30.7168 6.65233 24.0645 -1.36495e-05 15.8584 -1.36495e-05ZM25.0778 23.5749C27.2459 21.2974 28.5767 18.2156 28.5767 14.823C28.5767 7.81173 22.8929 2.12797 15.8817 2.12797C8.8704 2.12797 3.18664 7.81173 3.18664 14.823C3.18664 18.1961 4.50221 21.262 6.64825 23.5355C7.01696 21.9542 7.87693 20.5615 9.05855 19.5274C10.3875 18.2582 12.1882 17.4788 14.1709 17.4788H17.5924C19.847 17.4788 21.8663 18.4866 23.2243 20.0763C24.1232 21.0428 24.7747 22.2426 25.0778 23.5749ZM12.7954 11.5627C12.7954 9.8582 14.1772 8.47644 15.8817 8.47644C17.5862 8.47644 18.9679 9.8582 18.9679 11.5627C18.9679 13.2672 17.5862 14.6489 15.8817 14.6489C14.1772 14.6489 12.7954 13.2672 12.7954 11.5627ZM10.1922 20.7679C9.11645 21.8084 8.44763 23.2671 8.44763 24.8821V25.1135C10.5372 26.6262 13.1042 27.5177 15.8817 27.5177C18.659 27.5177 21.2261 26.6259 23.3157 25.1134V24.8821V24.882C23.3159 23.4769 22.8096 22.1901 21.9694 21.1941C20.8828 20.0398 19.3407 19.3191 17.6303 19.3191H14.0866C12.5978 19.3191 11.2365 19.8651 10.1922 20.7679ZM10.952 11.4817C10.952 8.77189 13.1487 6.57518 15.8584 6.57518C18.5682 6.57518 20.7649 8.77189 20.7649 11.4817C20.7649 14.1914 18.5682 16.3881 15.8584 16.3881C13.1487 16.3881 10.952 14.1914 10.952 11.4817Z" fill="black"/>
<path d="M0.958807 47V38.2727H4.0696C4.74858 38.2727 5.31108 38.3963 5.7571 38.6435C6.20313 38.8906 6.53693 39.2287 6.75852 39.6577C6.98011 40.0838 7.09091 40.5639 7.09091 41.098C7.09091 41.6349 6.97869 42.1179 6.75426 42.5469C6.53267 42.973 6.19744 43.3111 5.74858 43.5611C5.30256 43.8082 4.74148 43.9318 4.06534 43.9318H1.92614V42.8153H3.94602C4.375 42.8153 4.72301 42.7415 4.99006 42.5938C5.2571 42.4432 5.45312 42.2386 5.57812 41.9801C5.70312 41.7216 5.76562 41.4276 5.76562 41.098C5.76562 40.7685 5.70312 40.4759 5.57812 40.2202C5.45312 39.9645 5.25568 39.7642 4.9858 39.6193C4.71875 39.4744 4.36648 39.402 3.92898 39.402H2.27557V47H0.958807ZM11.2713 47.1321C10.6264 47.1321 10.071 46.9943 9.60511 46.7188C9.14205 46.4403 8.78409 46.0497 8.53125 45.5469C8.28125 45.0412 8.15625 44.4489 8.15625 43.7699C8.15625 43.0994 8.28125 42.5085 8.53125 41.9972C8.78409 41.4858 9.13636 41.0866 9.58807 40.7997C10.0426 40.5128 10.5739 40.3693 11.1818 40.3693C11.5511 40.3693 11.9091 40.4304 12.2557 40.5526C12.6023 40.6747 12.9134 40.8665 13.1889 41.1278C13.4645 41.3892 13.6818 41.7287 13.8409 42.1463C14 42.5611 14.0795 43.0653 14.0795 43.6591V44.1108H8.87642V43.1562H12.831C12.831 42.821 12.7628 42.5241 12.6264 42.2656C12.4901 42.0043 12.2983 41.7983 12.0511 41.6477C11.8068 41.4972 11.5199 41.4219 11.1903 41.4219C10.8324 41.4219 10.5199 41.5099 10.2528 41.6861C9.98864 41.8594 9.78409 42.0866 9.6392 42.3679C9.49716 42.6463 9.42614 42.9489 9.42614 43.2756V44.0213C9.42614 44.4588 9.50284 44.831 9.65625 45.1378C9.8125 45.4446 10.0298 45.679 10.3082 45.8409C10.5866 46 10.9119 46.0795 11.2841 46.0795C11.5256 46.0795 11.7457 46.0455 11.9446 45.9773C12.1435 45.9062 12.3153 45.8011 12.4602 45.6619C12.6051 45.5227 12.7159 45.3509 12.7926 45.1463L13.9986 45.3636C13.902 45.7187 13.7287 46.0298 13.4787 46.2969C13.2315 46.5611 12.9205 46.767 12.5455 46.9148C12.1733 47.0597 11.7486 47.1321 11.2713 47.1321ZM15.4933 47V40.4545H16.7248V41.4943H16.793C16.9123 41.142 17.1225 40.8651 17.4237 40.6634C17.7276 40.4588 18.0714 40.3565 18.4549 40.3565C18.5344 40.3565 18.6282 40.3594 18.7362 40.3651C18.8469 40.3707 18.9336 40.3778 18.9961 40.3864V41.6051C18.945 41.5909 18.854 41.5753 18.7234 41.5582C18.5927 41.5384 18.462 41.5284 18.3313 41.5284C18.0302 41.5284 17.7617 41.5923 17.5259 41.7202C17.293 41.8452 17.1083 42.0199 16.9719 42.2443C16.8356 42.4659 16.7674 42.7187 16.7674 43.0028V47H15.4933ZM23.6005 40.4545V41.4773H19.9016V40.4545H23.6005ZM20.9158 47V39.696C20.9158 39.2869 21.0053 38.9474 21.1843 38.6776C21.3633 38.4048 21.6005 38.2017 21.896 38.0682C22.1914 37.9318 22.5124 37.8636 22.859 37.8636C23.1147 37.8636 23.3335 37.8849 23.5153 37.9276C23.6971 37.9673 23.832 38.0043 23.9201 38.0384L23.6218 39.0696C23.5621 39.0526 23.4854 39.0327 23.3917 39.0099C23.2979 38.9844 23.1843 38.9716 23.0508 38.9716C22.7411 38.9716 22.5195 39.0483 22.386 39.2017C22.2553 39.3551 22.19 39.5767 22.19 39.8665V47H20.9158ZM24.9151 47V40.4545H26.1893V47H24.9151ZM25.5586 39.4446C25.337 39.4446 25.1467 39.3707 24.9876 39.223C24.8313 39.0724 24.7532 38.8935 24.7532 38.6861C24.7532 38.4759 24.8313 38.2969 24.9876 38.1491C25.1467 37.9986 25.337 37.9233 25.5586 37.9233C25.7802 37.9233 25.9691 37.9986 26.1254 38.1491C26.2844 38.2969 26.364 38.4759 26.364 38.6861C26.364 38.8935 26.2844 39.0724 26.1254 39.223C25.9691 39.3707 25.7802 39.4446 25.5586 39.4446ZM29.1776 38.2727V47H27.9034V38.2727H29.1776Z" fill="black"/>
</svg>
