<svg width="24" height="34" viewBox="0 0 24 34" fill="none" xmlns="http://www.w3.org/2000/svg">
<path d="M15.3715 0.121948H7.2981C3.35159 0.121948 0.141602 3.33194 0.141602 7.27845C0.141602 8.59569 1.20837 9.59686 2.5271 9.59686C3.84583 9.59686 4.9126 8.52934 4.9126 7.27845C4.9126 5.96344 5.9816 4.89295 7.2981 4.89295H15.3715C17.4961 4.89295 19.2256 6.62169 19.2256 8.75373C19.2256 10.2238 18.4078 11.547 16.9519 12.282L9.66869 16.5513C8.87104 16.9837 8.49085 17.7664 8.49085 18.6088V21.5907C8.49085 22.9079 9.55762 23.9755 10.8763 23.9755C12.1951 23.9755 13.2618 22.9079 13.2618 21.5907V19.973L19.2256 16.4693C22.168 14.997 23.9966 12.0398 23.9966 8.75373C23.9966 3.99391 20.1276 0.121948 15.3715 0.121948ZM10.8763 27.5544C9.22961 27.5544 7.89447 28.8896 7.89447 30.5363C7.89447 32.1831 9.22961 33.4511 10.8763 33.4511C12.5231 33.4511 13.8582 32.1167 13.8582 30.5363C13.8582 28.9559 12.5238 27.5544 10.8763 27.5544Z" fill="white"/>
</svg>
