<svg width="17" height="17" viewBox="0 0 17 17" fill="none" xmlns="http://www.w3.org/2000/svg">
<g clip-path="url(#clip0_373_104)">
<path d="M16.6115 14.7322L12.6371 10.7578C13.5409 9.41609 13.9868 7.73967 13.7481 5.95334C13.341 2.91492 10.8508 0.442285 7.8094 0.0572281C3.28746 -0.514961 -0.514958 3.28746 0.0572648 7.80939C0.442421 10.8521 2.91539 13.3444 5.95414 13.7494C7.74047 13.9881 9.41722 13.5424 10.7586 12.6385L14.733 16.6129C15.2517 17.1315 16.0927 17.1315 16.6113 16.6129C17.1295 16.0936 17.1295 15.2502 16.6115 14.7322ZM2.62639 6.90627C2.62639 4.56279 4.53291 2.65627 6.87639 2.65627C9.21987 2.65627 11.1264 4.56279 11.1264 6.90627C11.1264 9.24975 9.21987 11.1563 6.87639 11.1563C4.53291 11.1563 2.62639 9.25041 2.62639 6.90627Z" fill="#B9B9B9"/>
</g>
<defs>
<clipPath id="clip0_373_104">
<rect width="17" height="17" fill="white"/>
</clipPath>
</defs>
</svg>
