<svg width="57" height="55" viewBox="0 0 57 55" fill="none" xmlns="http://www.w3.org/2000/svg">
<path fill-rule="evenodd" clip-rule="evenodd" d="M35.9827 12.0802C35.9827 18.5839 30.7103 23.8563 24.2065 23.8563C17.7027 23.8563 12.4304 18.5839 12.4304 12.0802C12.4304 5.57638 17.7027 0.304016 24.2065 0.304016C30.7103 0.304016 35.9827 5.57638 35.9827 12.0802ZM37.2911 48.717C39.7469 48.717 42.0364 48.0048 43.9643 46.7758L50.8077 53.8953C52.1848 55.328 54.4627 55.373 55.8954 53.9959C57.3281 52.6187 57.3732 50.3409 55.996 48.9081L48.6734 41.2901C49.3473 39.7592 49.7215 38.0666 49.7215 36.2866C49.7215 29.4215 44.1562 23.8563 37.2911 23.8563C30.426 23.8563 24.8607 29.4215 24.8607 36.2866C24.8607 43.1518 30.426 48.717 37.2911 48.717ZM37.6182 42.8289C41.0508 42.8289 43.8334 40.0463 43.8334 36.6138C43.8334 33.1812 41.0508 30.3986 37.6182 30.3986C34.1856 30.3986 31.403 33.1812 31.403 36.6138C31.403 40.0463 34.1856 42.8289 37.6182 42.8289ZM0 46.1004C2.71266 35.7516 12.7778 28.0186 24.8603 27.7818C22.3735 32.1513 21.3349 37.2598 22.2287 42.5006C22.44 43.7396 22.7517 44.9415 23.1551 46.1004H0Z" fill="white"/>
</svg>
