<svg width="85" height="49" viewBox="0 0 85 49" fill="none" xmlns="http://www.w3.org/2000/svg">
<path d="M53.5473 5.26294L52.7726 5.8953C53.1938 6.41123 53.5777 6.9575 53.9198 7.53409L54.1743 7.97809C54.4261 8.43866 54.6508 8.91075 54.8463 9.3972L54.9852 9.7796C55.0181 9.87014 54.9972 9.99831 54.8941 10.0921L54.8941 10.0921L54.8895 10.0964L52.4669 12.3284L52.0856 12.6797L52.1529 13.1937C52.2091 13.6233 52.2396 14.0614 52.2396 14.5028C52.2396 14.9442 52.2091 15.3824 52.1529 15.812L52.0856 16.326L52.4669 16.6772L54.8895 18.9093L54.8895 18.9093L54.8941 18.9135C54.9972 19.0074 55.0181 19.1355 54.9852 19.2261L55.9252 19.5675M53.5473 5.26294L52.7743 5.89734C52.7229 5.83475 52.6126 5.78783 52.4832 5.82953L52.4828 5.82965L49.3664 6.83238L48.8631 6.99432L48.4459 6.6696C47.7647 6.13939 47.0136 5.69776 46.2138 5.36461L45.7313 5.16364L45.6209 4.65281L44.9217 1.4188C44.9217 1.41866 44.9216 1.41852 44.9216 1.41837C44.8871 1.25999 44.7853 1.19608 44.7178 1.18493L44.7143 1.18434C43.9969 1.06329 43.2581 1 42.5028 1C41.7474 1 41.0111 1.06329 40.2984 1.18879L40.2878 1.19065L40.2878 1.19059C40.2202 1.20175 40.1184 1.26575 40.0839 1.4244C40.0839 1.42442 40.0839 1.42444 40.0839 1.42446L39.3847 4.65848L39.2742 5.16931L38.7918 5.37027C37.992 5.70343 37.2409 6.14506 36.5597 6.67526L36.1425 6.99998L35.6392 6.83805L32.5228 5.83531L32.5224 5.8352C32.3855 5.79109 32.2816 5.84086 32.2356 5.8977L32.233 5.90097L32.233 5.90097C31.8118 6.4169 31.4279 6.96317 31.0858 7.53976L30.8314 7.9837C30.5147 8.56277 30.241 9.16005 30.0142 9.78118L29.0748 9.43817L30.0148 9.7796C29.9819 9.87014 30.0028 9.99831 30.1059 10.0921L30.1105 10.0964L30.1105 10.0964L32.5331 12.3284L32.9144 12.6797L32.8471 13.1937C32.7909 13.6233 32.7604 14.0614 32.7604 14.5028C32.7604 14.944 32.7908 15.3826 32.8473 15.8192L32.9137 16.3323L32.5331 16.6829L30.1105 18.915L30.1059 18.9192L30.1059 18.9192C30.0029 19.0129 29.9819 19.1408 30.0146 19.2313C30.2413 19.852 30.5149 20.4489 30.8314 21.0276L31.0858 21.4716C31.4279 22.0482 31.8118 22.5944 32.233 23.1104L31.4583 23.7427M53.5473 5.26294C53.2172 4.86071 52.6689 4.71909 52.1765 4.87771L54.7838 7.03047C54.4145 6.40731 54.0005 5.81813 53.5473 5.26294ZM31.4583 23.7427L32.2313 23.1083C32.2826 23.1708 32.3926 23.2177 32.5218 23.1763C32.522 23.1763 32.5222 23.1762 32.5224 23.1761L35.6315 22.1683L36.1358 22.0048L36.5541 22.3304C37.2353 22.8606 37.9864 23.3022 38.7862 23.6354L39.2687 23.8364L39.3791 24.3472L40.0783 27.5812C40.1127 27.7399 40.2146 27.8039 40.2822 27.8151L40.2857 27.8157C41.0031 27.9367 41.7419 28 42.4972 28C43.2525 28 43.9913 27.9367 44.7087 27.8157L44.7122 27.8151C44.7798 27.8039 44.8816 27.74 44.9161 27.5814C44.9161 27.5814 44.9161 27.5813 44.9161 27.5812L45.6153 24.3472L45.7258 23.8364L46.2082 23.6354C47.008 23.3022 47.7591 22.8606 48.4403 22.3304L48.8575 22.0057L49.3608 22.1676L52.4772 23.1704L52.4776 23.1705C52.6145 23.2146 52.7184 23.1648 52.7644 23.108L52.767 23.1047C53.1882 22.5888 53.5721 22.0425 53.9142 21.4659L54.1686 21.0219C54.4853 20.4429 54.759 19.8456 54.9858 19.2245L55.9252 19.5675M31.4583 23.7427C31.7884 24.145 32.3367 24.2866 32.8291 24.128L35.9399 23.1196L30.2218 21.9752C30.5911 22.5984 31.0051 23.1875 31.4583 23.7427ZM55.9252 19.5675C56.1042 19.0746 55.9531 18.5251 55.5671 18.1739L55.0411 21.5106C55.3824 20.8875 55.679 20.2416 55.9252 19.5675ZM31.4583 5.26861C31.7884 4.86071 32.3367 4.72475 32.8291 4.88338L31.4583 5.26861ZM42.5028 20.035C45.5398 20.035 47.9788 17.5473 47.9788 14.5028C47.9788 11.4583 45.5398 8.9707 42.5028 8.9707C39.4658 8.9707 37.0268 11.4583 37.0268 14.5028C37.0268 17.5473 39.4658 20.035 42.5028 20.035Z" stroke="black" stroke-width="2"/>
<path d="M8.20739 40.1108H6.87784C6.8267 39.8267 6.73153 39.5767 6.59233 39.3608C6.45313 39.1449 6.28267 38.9616 6.08097 38.8111C5.87926 38.6605 5.65341 38.5469 5.40341 38.4702C5.15625 38.3935 4.89347 38.3551 4.61506 38.3551C4.11222 38.3551 3.66193 38.4815 3.2642 38.7344C2.86932 38.9872 2.55682 39.358 2.3267 39.8466C2.09943 40.3352 1.9858 40.9318 1.9858 41.6364C1.9858 42.3466 2.09943 42.946 2.3267 43.4347C2.55682 43.9233 2.87074 44.2926 3.26847 44.5426C3.66619 44.7926 4.11364 44.9176 4.6108 44.9176C4.88636 44.9176 5.14773 44.8807 5.39489 44.8068C5.64489 44.7301 5.87074 44.6179 6.07244 44.4702C6.27415 44.3224 6.4446 44.142 6.58381 43.929C6.72585 43.7131 6.82386 43.4659 6.87784 43.1875L8.20739 43.1918C8.13636 43.6207 7.99858 44.0156 7.79403 44.3764C7.59233 44.7344 7.33239 45.044 7.0142 45.3054C6.69886 45.5639 6.33807 45.7642 5.93182 45.9062C5.52557 46.0483 5.08239 46.1193 4.60227 46.1193C3.84659 46.1193 3.1733 45.9403 2.58239 45.5824C1.99148 45.2216 1.52557 44.706 1.18466 44.0355C0.846591 43.3651 0.677557 42.5653 0.677557 41.6364C0.677557 40.7045 0.848011 39.9048 1.18892 39.2372C1.52983 38.5668 1.99574 38.0526 2.58665 37.6946C3.17756 37.3338 3.84943 37.1534 4.60227 37.1534C5.06534 37.1534 5.49716 37.2202 5.89773 37.3537C6.30114 37.4844 6.66335 37.6776 6.98438 37.9332C7.3054 38.1861 7.57102 38.4957 7.78125 38.8622C7.99148 39.2259 8.13352 39.642 8.20739 40.1108ZM12.4379 46.1321C11.8242 46.1321 11.2887 45.9915 10.8313 45.7102C10.3739 45.429 10.0188 45.0355 9.76598 44.5298C9.51314 44.0241 9.38672 43.4332 9.38672 42.7571C9.38672 42.0781 9.51314 41.4844 9.76598 40.9759C10.0188 40.4673 10.3739 40.0724 10.8313 39.7912C11.2887 39.5099 11.8242 39.3693 12.4379 39.3693C13.0515 39.3693 13.587 39.5099 14.0444 39.7912C14.5018 40.0724 14.8569 40.4673 15.1097 40.9759C15.3626 41.4844 15.489 42.0781 15.489 42.7571C15.489 43.4332 15.3626 44.0241 15.1097 44.5298C14.8569 45.0355 14.5018 45.429 14.0444 45.7102C13.587 45.9915 13.0515 46.1321 12.4379 46.1321ZM12.4421 45.0625C12.8398 45.0625 13.1694 44.9574 13.4308 44.7472C13.6921 44.5369 13.8853 44.2571 14.0103 43.9077C14.1381 43.5582 14.2021 43.1733 14.2021 42.7528C14.2021 42.3352 14.1381 41.9517 14.0103 41.6023C13.8853 41.25 13.6921 40.9673 13.4308 40.7543C13.1694 40.5412 12.8398 40.4347 12.4421 40.4347C12.0415 40.4347 11.7092 40.5412 11.445 40.7543C11.1836 40.9673 10.989 41.25 10.8612 41.6023C10.7362 41.9517 10.6737 42.3352 10.6737 42.7528C10.6737 43.1733 10.7362 43.5582 10.8612 43.9077C10.989 44.2571 11.1836 44.5369 11.445 44.7472C11.7092 44.9574 12.0415 45.0625 12.4421 45.0625ZM18.1854 42.1136V46H16.9112V39.4545H18.1342V40.5199H18.2152C18.3658 40.1733 18.6016 39.8949 18.9226 39.6847C19.2464 39.4744 19.6541 39.3693 20.1456 39.3693C20.5916 39.3693 20.9822 39.4631 21.3175 39.6506C21.6527 39.8352 21.9126 40.1108 22.0973 40.4773C22.282 40.8437 22.3743 41.2969 22.3743 41.8366V46H21.1001V41.9901C21.1001 41.5156 20.9766 41.1449 20.7294 40.8778C20.4822 40.608 20.1428 40.473 19.7109 40.473C19.4155 40.473 19.1527 40.5369 18.9226 40.6648C18.6953 40.7926 18.5149 40.9801 18.3814 41.2273C18.2507 41.4716 18.1854 41.767 18.1854 42.1136ZM27.1982 39.4545V40.4773H23.4993V39.4545H27.1982ZM24.5135 46V38.696C24.5135 38.2869 24.603 37.9474 24.782 37.6776C24.9609 37.4048 25.1982 37.2017 25.4936 37.0682C25.7891 36.9318 26.1101 36.8636 26.4567 36.8636C26.7124 36.8636 26.9311 36.8849 27.1129 36.9276C27.2947 36.9673 27.4297 37.0043 27.5178 37.0384L27.2195 38.0696C27.1598 38.0526 27.0831 38.0327 26.9893 38.0099C26.8956 37.9844 26.782 37.9716 26.6484 37.9716C26.3388 37.9716 26.1172 38.0483 25.9837 38.2017C25.853 38.3551 25.7876 38.5767 25.7876 38.8665V46H24.5135ZM28.5128 46V39.4545H29.7869V46H28.5128ZM29.1562 38.4446C28.9347 38.4446 28.7443 38.3707 28.5852 38.223C28.429 38.0724 28.3509 37.8935 28.3509 37.6861C28.3509 37.4759 28.429 37.2969 28.5852 37.1491C28.7443 36.9986 28.9347 36.9233 29.1562 36.9233C29.3778 36.9233 29.5668 36.9986 29.723 37.1491C29.8821 37.2969 29.9616 37.4759 29.9616 37.6861C29.9616 37.8935 29.8821 38.0724 29.723 38.223C29.5668 38.3707 29.3778 38.4446 29.1562 38.4446ZM34.2454 48.5909C33.7255 48.5909 33.2781 48.5227 32.9031 48.3864C32.5309 48.25 32.2269 48.0696 31.9911 47.8452C31.7553 47.6207 31.5792 47.375 31.4627 47.108L32.5579 46.6562C32.6346 46.7812 32.7369 46.9134 32.8647 47.0526C32.9954 47.1946 33.1715 47.3153 33.3931 47.4148C33.6175 47.5142 33.9059 47.5639 34.2582 47.5639C34.7411 47.5639 35.1403 47.446 35.4556 47.2102C35.771 46.9773 35.9286 46.6051 35.9286 46.0938V44.8068H35.8477C35.771 44.946 35.6602 45.1009 35.5153 45.2713C35.3732 45.4418 35.1772 45.5895 34.9272 45.7145C34.6772 45.8395 34.3519 45.902 33.9513 45.902C33.4343 45.902 32.9684 45.7812 32.5536 45.5398C32.1417 45.2955 31.815 44.9361 31.5735 44.4616C31.3349 43.9844 31.2156 43.3977 31.2156 42.7017C31.2156 42.0057 31.3335 41.4091 31.5692 40.9119C31.8079 40.4148 32.1346 40.0341 32.5494 39.7699C32.9641 39.5028 33.4343 39.3693 33.9599 39.3693C34.3661 39.3693 34.6942 39.4375 34.9442 39.5739C35.1942 39.7074 35.3888 39.8636 35.5281 40.0426C35.6701 40.2216 35.7795 40.3793 35.8562 40.5156H35.9499V39.4545H37.1985V46.1449C37.1985 46.7074 37.0678 47.169 36.8065 47.5298C36.5451 47.8906 36.1914 48.1577 35.7454 48.331C35.3022 48.5043 34.8022 48.5909 34.2454 48.5909ZM34.2326 44.8452C34.5991 44.8452 34.9087 44.7599 35.1616 44.5895C35.4173 44.4162 35.6104 44.169 35.7411 43.848C35.8746 43.5241 35.9414 43.1364 35.9414 42.6847C35.9414 42.2443 35.8761 41.8565 35.7454 41.5213C35.6147 41.1861 35.4229 40.9247 35.1701 40.7372C34.9173 40.5469 34.6048 40.4517 34.2326 40.4517C33.8491 40.4517 33.5295 40.5511 33.2738 40.75C33.0181 40.946 32.8249 41.2131 32.6942 41.5511C32.5664 41.8892 32.5025 42.267 32.5025 42.6847C32.5025 43.1136 32.5678 43.4901 32.6985 43.8139C32.8292 44.1378 33.0224 44.3906 33.2781 44.5724C33.5366 44.7543 33.8548 44.8452 34.2326 44.8452ZM43.0536 43.2855V39.4545H44.332V46H43.0792V44.8665H43.011C42.8604 45.2159 42.619 45.5071 42.2866 45.7401C41.957 45.9702 41.5465 46.0852 41.055 46.0852C40.6346 46.0852 40.2624 45.9929 39.9386 45.8082C39.6175 45.6207 39.3647 45.3438 39.18 44.9773C38.9982 44.6108 38.9073 44.1577 38.9073 43.6179V39.4545H40.1815V43.4645C40.1815 43.9105 40.305 44.2656 40.5522 44.5298C40.7994 44.794 41.1204 44.9261 41.5153 44.9261C41.7539 44.9261 41.9911 44.8665 42.2269 44.7472C42.4656 44.6278 42.663 44.4474 42.8192 44.206C42.9783 43.9645 43.0565 43.6577 43.0536 43.2855ZM46.044 46V39.4545H47.2756V40.4943H47.3438C47.4631 40.142 47.6733 39.8651 47.9744 39.6634C48.2784 39.4588 48.6222 39.3565 49.0057 39.3565C49.0852 39.3565 49.179 39.3594 49.2869 39.3651C49.3977 39.3707 49.4844 39.3778 49.5469 39.3864V40.6051C49.4957 40.5909 49.4048 40.5753 49.2741 40.5582C49.1435 40.5384 49.0128 40.5284 48.8821 40.5284C48.581 40.5284 48.3125 40.5923 48.0767 40.7202C47.8438 40.8452 47.6591 41.0199 47.5227 41.2443C47.3864 41.4659 47.3182 41.7187 47.3182 42.0028V46H46.044ZM52.4957 46.1449C52.081 46.1449 51.706 46.0682 51.3707 45.9148C51.0355 45.7585 50.7699 45.5327 50.5739 45.2372C50.3807 44.9418 50.2841 44.5795 50.2841 44.1506C50.2841 43.7812 50.3551 43.4773 50.4972 43.2386C50.6392 43 50.831 42.8111 51.0724 42.6719C51.3139 42.5327 51.5838 42.4276 51.8821 42.3565C52.1804 42.2855 52.4844 42.2315 52.794 42.1946C53.1861 42.1491 53.5043 42.1122 53.7486 42.0838C53.9929 42.0526 54.1705 42.0028 54.2812 41.9347C54.392 41.8665 54.4474 41.7557 54.4474 41.6023V41.5724C54.4474 41.2003 54.3423 40.9119 54.1321 40.7074C53.9247 40.5028 53.6151 40.4006 53.2031 40.4006C52.7741 40.4006 52.4361 40.4957 52.1889 40.6861C51.9446 40.8736 51.7756 41.0824 51.6818 41.3125L50.4844 41.0398C50.6264 40.642 50.8338 40.321 51.1065 40.0767C51.3821 39.8295 51.6989 39.6506 52.0568 39.5398C52.4148 39.4261 52.7912 39.3693 53.1861 39.3693C53.4474 39.3693 53.7244 39.4006 54.017 39.4631C54.3125 39.5227 54.5881 39.6335 54.8438 39.7955C55.1023 39.9574 55.3139 40.1889 55.4787 40.4901C55.6435 40.7884 55.7259 41.1761 55.7259 41.6534V46H54.4815V45.1051H54.4304C54.348 45.2699 54.2244 45.4318 54.0597 45.5909C53.8949 45.75 53.6832 45.8821 53.4247 45.9872C53.1662 46.0923 52.8565 46.1449 52.4957 46.1449ZM52.7727 45.1222C53.125 45.1222 53.4261 45.0526 53.6761 44.9134C53.929 44.7741 54.1207 44.5923 54.2514 44.3679C54.3849 44.1406 54.4517 43.8977 54.4517 43.6392V42.7955C54.4063 42.8409 54.3182 42.8835 54.1875 42.9233C54.0597 42.9602 53.9134 42.9929 53.7486 43.0213C53.5838 43.0469 53.4233 43.071 53.267 43.0938C53.1108 43.1136 52.9801 43.1307 52.875 43.1449C52.6278 43.1761 52.402 43.2287 52.1974 43.3026C51.9957 43.3764 51.8338 43.483 51.7116 43.6222C51.5923 43.7585 51.5327 43.9403 51.5327 44.1676C51.5327 44.483 51.6491 44.7216 51.8821 44.8835C52.1151 45.0426 52.4119 45.1222 52.7727 45.1222ZM60.18 46.1321C59.5465 46.1321 59.0011 45.9886 58.5437 45.7017C58.0891 45.4119 57.7397 45.0128 57.4954 44.5043C57.2511 43.9957 57.1289 43.4134 57.1289 42.7571C57.1289 42.0923 57.2539 41.5057 57.5039 40.9972C57.7539 40.4858 58.1062 40.0866 58.5607 39.7997C59.0153 39.5128 59.5508 39.3693 60.1673 39.3693C60.6644 39.3693 61.1076 39.4616 61.4968 39.6463C61.886 39.8281 62.1999 40.0838 62.4386 40.4134C62.68 40.7429 62.8235 41.1278 62.869 41.5682H61.6289C61.5607 41.2614 61.4045 40.9972 61.1602 40.7756C60.9187 40.554 60.5948 40.4432 60.1886 40.4432C59.8335 40.4432 59.5224 40.5369 59.2553 40.7244C58.9911 40.9091 58.7852 41.1733 58.6374 41.517C58.4897 41.858 58.4158 42.2614 58.4158 42.7273C58.4158 43.2045 58.4883 43.6165 58.6332 43.9631C58.7781 44.3097 58.9826 44.5781 59.2468 44.7685C59.5138 44.9588 59.8278 45.054 60.1886 45.054C60.43 45.054 60.6488 45.0099 60.8448 44.9219C61.0437 44.831 61.2099 44.7017 61.3434 44.5341C61.4798 44.3665 61.5749 44.1648 61.6289 43.929H62.869C62.8235 44.3523 62.6857 44.7301 62.4556 45.0625C62.2255 45.3949 61.9173 45.6562 61.5309 45.8466C61.1474 46.0369 60.6971 46.1321 60.18 46.1321ZM59.7198 45.9659H60.555L60.4869 46.3153C60.734 46.3551 60.9499 46.4545 61.1346 46.6136C61.3192 46.7727 61.4116 47.0128 61.4116 47.3338C61.4144 47.7173 61.2482 48.0284 60.913 48.267C60.5806 48.5057 60.0991 48.625 59.4684 48.625L59.4428 47.9134C59.7383 47.9134 59.9769 47.8707 60.1587 47.7855C60.3434 47.7003 60.4371 47.5625 60.44 47.3722C60.4428 47.1818 60.3718 47.0483 60.2269 46.9716C60.0849 46.8949 59.8576 46.8409 59.5451 46.8097L59.7198 45.9659ZM66.9886 46.1321C66.375 46.1321 65.8395 45.9915 65.3821 45.7102C64.9247 45.429 64.5696 45.0355 64.3168 44.5298C64.0639 44.0241 63.9375 43.4332 63.9375 42.7571C63.9375 42.0781 64.0639 41.4844 64.3168 40.9759C64.5696 40.4673 64.9247 40.0724 65.3821 39.7912C65.8395 39.5099 66.375 39.3693 66.9886 39.3693C67.6023 39.3693 68.1378 39.5099 68.5952 39.7912C69.0526 40.0724 69.4077 40.4673 69.6605 40.9759C69.9134 41.4844 70.0398 42.0781 70.0398 42.7571C70.0398 43.4332 69.9134 44.0241 69.6605 44.5298C69.4077 45.0355 69.0526 45.429 68.5952 45.7102C68.1378 45.9915 67.6023 46.1321 66.9886 46.1321ZM66.9929 45.0625C67.3906 45.0625 67.7202 44.9574 67.9815 44.7472C68.2429 44.5369 68.4361 44.2571 68.5611 43.9077C68.6889 43.5582 68.7528 43.1733 68.7528 42.7528C68.7528 42.3352 68.6889 41.9517 68.5611 41.6023C68.4361 41.25 68.2429 40.9673 67.9815 40.7543C67.7202 40.5412 67.3906 40.4347 66.9929 40.4347C66.5923 40.4347 66.2599 40.5412 65.9957 40.7543C65.7344 40.9673 65.5398 41.25 65.4119 41.6023C65.2869 41.9517 65.2244 42.3352 65.2244 42.7528C65.2244 43.1733 65.2869 43.5582 65.4119 43.9077C65.5398 44.2571 65.7344 44.5369 65.9957 44.7472C66.2599 44.9574 66.5923 45.0625 66.9929 45.0625ZM65.706 38.6619L64.8494 38.6364C64.8494 38.1648 64.9759 37.7884 65.2287 37.5071C65.4844 37.2259 65.7997 37.0852 66.1747 37.0852C66.348 37.0852 66.5 37.1151 66.6307 37.1747C66.7614 37.2315 66.8835 37.2983 66.9972 37.375C67.1136 37.4489 67.2287 37.5156 67.3423 37.5753C67.4588 37.6321 67.5881 37.6605 67.7301 37.6605C67.8949 37.6605 68.0284 37.598 68.1307 37.473C68.2358 37.348 68.2884 37.1932 68.2884 37.0085L69.1278 37.0639C69.1278 37.5384 69 37.9119 68.7443 38.1847C68.4886 38.4545 68.1747 38.5909 67.8026 38.5938C67.6009 38.5938 67.4332 38.5653 67.2997 38.5085C67.169 38.4489 67.0526 38.3821 66.9503 38.3082C66.848 38.2315 66.7429 38.1634 66.6349 38.1037C66.527 38.044 66.3977 38.0142 66.2472 38.0142C66.0881 38.0142 65.9574 38.0767 65.8551 38.2017C65.7557 38.3239 65.706 38.4773 65.706 38.6619ZM74.283 46.1321C73.6381 46.1321 73.0827 45.9943 72.6168 45.7188C72.1538 45.4403 71.7958 45.0497 71.543 44.5469C71.293 44.0412 71.168 43.4489 71.168 42.7699C71.168 42.0994 71.293 41.5085 71.543 40.9972C71.7958 40.4858 72.1481 40.0866 72.5998 39.7997C73.0543 39.5128 73.5856 39.3693 74.1935 39.3693C74.5629 39.3693 74.9208 39.4304 75.2674 39.5526C75.614 39.6747 75.9251 39.8665 76.2006 40.1278C76.4762 40.3892 76.6935 40.7287 76.8526 41.1463C77.0117 41.5611 77.0913 42.0653 77.0913 42.6591V43.1108H71.8881V42.1562H75.8427C75.8427 41.821 75.7745 41.5241 75.6381 41.2656C75.5018 41.0043 75.31 40.7983 75.0629 40.6477C74.8185 40.4972 74.5316 40.4219 74.2021 40.4219C73.8441 40.4219 73.5316 40.5099 73.2646 40.6861C73.0004 40.8594 72.7958 41.0866 72.6509 41.3679C72.5089 41.6463 72.4379 41.9489 72.4379 42.2756V43.0213C72.4379 43.4588 72.5146 43.831 72.668 44.1378C72.8242 44.4446 73.0415 44.679 73.32 44.8409C73.5984 45 73.9237 45.0795 74.2958 45.0795C74.5373 45.0795 74.7575 45.0455 74.9563 44.9773C75.1552 44.9062 75.3271 44.8011 75.4719 44.6619C75.6168 44.5227 75.7276 44.3509 75.8043 44.1463L77.0103 44.3636C76.9137 44.7187 76.7404 45.0298 76.4904 45.2969C76.2433 45.5611 75.9322 45.767 75.5572 45.9148C75.185 46.0597 74.7603 46.1321 74.283 46.1321ZM83.4098 41.0526L82.255 41.2571C82.2067 41.1094 82.13 40.9687 82.0249 40.8352C81.9226 40.7017 81.7834 40.5923 81.6072 40.5071C81.4311 40.4219 81.2109 40.3793 80.9467 40.3793C80.5859 40.3793 80.2848 40.4602 80.0433 40.6222C79.8018 40.7812 79.6811 40.9872 79.6811 41.2401C79.6811 41.4588 79.7621 41.6349 79.924 41.7685C80.0859 41.902 80.3473 42.0114 80.7081 42.0966L81.7479 42.3352C82.3501 42.4744 82.799 42.6889 83.0945 42.9787C83.3899 43.2685 83.5376 43.6449 83.5376 44.108C83.5376 44.5 83.424 44.8494 83.1967 45.1562C82.9723 45.4602 82.6584 45.6989 82.255 45.8722C81.8544 46.0455 81.3899 46.1321 80.8615 46.1321C80.1286 46.1321 79.5305 45.9759 79.0675 45.6634C78.6044 45.348 78.3203 44.9006 78.2152 44.321L79.4467 44.1335C79.5234 44.4545 79.6811 44.6974 79.9197 44.8622C80.1584 45.0241 80.4695 45.1051 80.853 45.1051C81.2706 45.1051 81.6044 45.0185 81.8544 44.8452C82.1044 44.669 82.2294 44.4545 82.2294 44.2017C82.2294 43.9972 82.1527 43.8253 81.9993 43.6861C81.8487 43.5469 81.6172 43.4418 81.3047 43.3707L80.1967 43.1278C79.5859 42.9886 79.1342 42.767 78.8416 42.4631C78.5518 42.1591 78.407 41.7741 78.407 41.3082C78.407 40.9219 78.5149 40.5838 78.7308 40.294C78.9467 40.0043 79.245 39.7784 79.6257 39.6165C80.0064 39.4517 80.4425 39.3693 80.9339 39.3693C81.6413 39.3693 82.1982 39.5227 82.6044 39.8295C83.0107 40.1335 83.2791 40.5412 83.4098 41.0526Z" fill="black"/>
</svg>
