<svg width="28" height="28" viewBox="0 0 28 28" fill="none" xmlns="http://www.w3.org/2000/svg">
<path fill-rule="evenodd" clip-rule="evenodd" d="M26.8689 8.24006C26.9967 8.54901 27.1131 8.86161 27.2179 9.17718C27.3234 9.4947 27.4173 9.81524 27.4995 10.1381C26.5125 10.4672 25.4248 9.98092 25.0208 9.00468C24.4336 7.58543 23.5628 6.25391 22.4042 5.09535C21.2456 3.93679 19.9141 3.06591 18.4949 2.4787C17.5186 2.07479 17.0324 0.98706 17.3614 3.0939e-05C17.6843 0.0822611 18.0048 0.176123 18.3224 0.281619C18.6379 0.386468 18.9505 0.502807 19.2595 0.630638C20.9174 1.31659 22.4707 2.33343 23.8184 3.68113C25.1661 5.02884 26.1829 6.58213 26.8689 8.24006ZM25.0208 18.2365C25.4248 17.2603 26.5125 16.774 27.4995 17.1031C27.4173 17.426 27.3234 17.7465 27.2179 18.064C27.1131 18.3796 26.9967 18.6922 26.8689 19.0012C26.1829 20.6591 25.1661 22.2124 23.8184 23.5601C22.4707 24.9078 20.9174 25.9246 19.2595 26.6106C18.9505 26.7384 18.6379 26.8547 18.3224 26.9596C18.0048 27.0651 17.6843 27.1589 17.3614 27.2412C17.0324 26.2541 17.5186 25.1664 18.4949 24.7625C19.9141 24.1753 21.2456 23.3044 22.4042 22.1459C23.5628 20.9873 24.4336 19.6558 25.0208 18.2365ZM9.26301 24.7625C10.2393 25.1664 10.7255 26.2541 10.3965 27.2412C10.0736 27.1589 9.75304 27.0651 9.43552 26.9596C9.11994 26.8547 8.80735 26.7384 8.49839 26.6106C6.84046 25.9246 5.28717 24.9078 3.93947 23.5601C2.59176 22.2124 1.57493 20.6591 0.88897 19.0012C0.76114 18.6922 0.6448 18.3796 0.539951 18.064C0.434456 17.7465 0.340594 17.426 0.258362 17.1031C1.24539 16.774 2.33312 17.2603 2.73704 18.2365C3.32424 19.6558 4.19512 20.9873 5.35368 22.1459C6.51224 23.3044 7.84376 24.1753 9.26301 24.7625ZM2.73704 9.00468C2.33312 9.98092 1.24539 10.4672 0.258362 10.1381C0.340594 9.81524 0.434456 9.4947 0.539951 9.17718C0.6448 8.86161 0.76114 8.54901 0.88897 8.24005C1.57493 6.58213 2.59176 5.02884 3.93947 3.68113C5.28717 2.33343 6.84046 1.31659 8.49839 0.630637C8.80735 0.502808 9.11994 0.386468 9.43552 0.281619C9.75304 0.176123 10.0736 0.082261 10.3965 3.05176e-05C10.7255 0.987061 10.2393 2.07479 9.26301 2.4787C7.84376 3.06591 6.51224 3.93679 5.35368 5.09535C4.19512 6.25391 3.32424 7.58542 2.73704 9.00468ZM19.005 18.4641C16.2408 21.2283 11.7592 21.2283 8.99497 18.4641C6.23077 15.6999 6.23077 11.2183 8.99497 8.45406C11.7592 5.68986 16.2408 5.68986 19.005 8.45406C21.7692 11.2183 21.7692 15.6999 19.005 18.4641ZM20.4192 19.8783C16.874 23.4236 11.126 23.4236 7.58075 19.8783C4.03551 16.3331 4.03551 10.5851 7.58075 7.03984C11.126 3.4946 16.874 3.4946 20.4192 7.03984C23.9645 10.5851 23.9645 16.3331 20.4192 19.8783Z" fill="black"/>
</svg>
