<svg width="38" height="49" viewBox="0 0 38 49" fill="none" xmlns="http://www.w3.org/2000/svg">
<path fill-rule="evenodd" clip-rule="evenodd" d="M31.8689 8.24003C31.9967 8.54898 32.1131 8.86158 32.2179 9.17715C32.3234 9.49467 32.4173 9.81521 32.4995 10.1381C31.5125 10.4672 30.4248 9.98089 30.0208 9.00465C29.4336 7.5854 28.5628 6.25388 27.4042 5.09532C26.2456 3.93676 24.9141 3.06588 23.4949 2.47867C22.5186 2.07476 22.0324 0.987031 22.3614 2.09042e-06C22.6843 0.0822323 23.0048 0.176094 23.3224 0.28159C23.6379 0.386439 23.9505 0.502779 24.2595 0.630609C25.9174 1.31656 27.4707 2.3334 28.8184 3.6811C30.1661 5.02881 31.1829 6.5821 31.8689 8.24003ZM30.0208 18.2365C30.4248 17.2603 31.5125 16.774 32.4995 17.1031C32.4173 17.4259 32.3234 17.7465 32.2179 18.064C32.1131 18.3796 31.9967 18.6922 31.8689 19.0011C31.1829 20.659 30.1661 22.2123 28.8184 23.56C27.4707 24.9078 25.9174 25.9246 24.2595 26.6105C23.9505 26.7384 23.6379 26.8547 23.3224 26.9596C23.0048 27.0651 22.6843 27.1589 22.3614 27.2411C22.0324 26.2541 22.5186 25.1664 23.4949 24.7625C24.9141 24.1753 26.2456 23.3044 27.4042 22.1458C28.5628 20.9873 29.4336 19.6558 30.0208 18.2365ZM14.263 24.7625C15.2393 25.1664 15.7255 26.2541 15.3965 27.2411C15.0736 27.1589 14.753 27.0651 14.4355 26.9596C14.1199 26.8547 13.8073 26.7384 13.4984 26.6105C11.8405 25.9246 10.2872 24.9078 8.93947 23.56C7.59176 22.2123 6.57493 20.659 5.88897 19.0011C5.76114 18.6922 5.6448 18.3796 5.53995 18.064C5.43446 17.7465 5.34059 17.4259 5.25836 17.1031C6.24539 16.774 7.33312 17.2603 7.73704 18.2365C8.32424 19.6558 9.19512 20.9873 10.3537 22.1458C11.5122 23.3044 12.8438 24.1753 14.263 24.7625ZM7.73704 9.00465C7.33312 9.9809 6.24539 10.4672 5.25836 10.1381C5.34059 9.81521 5.43446 9.49467 5.53995 9.17715C5.6448 8.86158 5.76114 8.54899 5.88897 8.24003C6.57493 6.5821 7.59176 5.02881 8.93947 3.6811C10.2872 2.3334 11.8405 1.31656 13.4984 0.630609C13.8073 0.50278 14.1199 0.386439 14.4355 0.28159C14.753 0.176094 15.0736 0.0822321 15.3965 1.66895e-06C15.7255 0.987032 15.2393 2.07476 14.263 2.47867C12.8438 3.06588 11.5122 3.93676 10.3537 5.09532C9.19512 6.25388 8.32424 7.5854 7.73704 9.00465ZM24.005 18.4641C21.2408 21.2283 16.7592 21.2283 13.995 18.4641C11.2308 15.6999 11.2308 11.2182 13.995 8.45403C16.7592 5.68983 21.2408 5.68983 24.005 8.45403C26.7692 11.2182 26.7692 15.6999 24.005 18.4641ZM25.4192 19.8783C21.874 23.4235 16.126 23.4235 12.5808 19.8783C9.03551 16.333 9.03551 10.5851 12.5808 7.03982C16.126 3.49457 21.874 3.49457 25.4192 7.03982C28.9645 10.5851 28.9645 16.333 25.4192 19.8783Z" fill="black"/>
<path d="M5.71875 39.1859C5.6733 38.7825 5.4858 38.47 5.15625 38.2484C4.8267 38.024 4.41193 37.9118 3.91193 37.9118C3.55398 37.9118 3.24432 37.9686 2.98295 38.0822C2.72159 38.193 2.51847 38.3464 2.37358 38.5424C2.23153 38.7356 2.16051 38.9558 2.16051 39.203C2.16051 39.4103 2.20881 39.5893 2.3054 39.7399C2.40483 39.8905 2.53409 40.0169 2.69318 40.1192C2.85511 40.2186 3.02841 40.3024 3.21307 40.3706C3.39773 40.4359 3.57528 40.4899 3.74574 40.5325L4.59801 40.7541C4.87642 40.8223 5.16193 40.9146 5.45455 41.0311C5.74716 41.1476 6.01847 41.301 6.26847 41.4913C6.51847 41.6817 6.72017 41.9174 6.87358 42.1987C7.02983 42.4799 7.10795 42.8166 7.10795 43.2086C7.10795 43.703 6.98011 44.1419 6.72443 44.5254C6.47159 44.9089 6.10369 45.2115 5.62074 45.4331C5.14063 45.6547 4.55966 45.7655 3.87784 45.7655C3.22443 45.7655 2.65909 45.6618 2.18182 45.4544C1.70455 45.247 1.33097 44.953 1.06108 44.5723C0.791193 44.1888 0.642045 43.7342 0.613636 43.2086H1.93466C1.96023 43.524 2.0625 43.7868 2.24148 43.997C2.4233 44.2044 2.65483 44.3592 2.93608 44.4615C3.22017 44.5609 3.53125 44.6106 3.86932 44.6106C4.24148 44.6106 4.57244 44.5524 4.86222 44.4359C5.15483 44.3166 5.38494 44.1518 5.55256 43.9416C5.72017 43.7285 5.80398 43.4799 5.80398 43.1959C5.80398 42.9373 5.73011 42.7257 5.58239 42.5609C5.4375 42.3961 5.24006 42.2598 4.99006 42.1518C4.7429 42.0439 4.46307 41.9487 4.15057 41.8663L3.11932 41.5851C2.42045 41.3947 1.86648 41.1149 1.45739 40.7456C1.05114 40.3763 0.848011 39.8876 0.848011 39.2797C0.848011 38.7768 0.984375 38.3379 1.2571 37.9629C1.52983 37.5879 1.89915 37.2967 2.36506 37.0893C2.83097 36.8791 3.35653 36.774 3.94176 36.774C4.53267 36.774 5.05398 36.8777 5.50568 37.0851C5.96023 37.2924 6.31818 37.578 6.57955 37.9416C6.84091 38.3024 6.97727 38.7172 6.98864 39.1859H5.71875ZM11.6346 39.0751V40.0978H8.0593V39.0751H11.6346ZM9.01811 37.5069H10.2923V43.6987C10.2923 43.9459 10.3292 44.1319 10.4031 44.2569C10.4769 44.3791 10.5721 44.4629 10.6886 44.5084C10.8079 44.551 10.9371 44.5723 11.0763 44.5723C11.1786 44.5723 11.2681 44.5652 11.3448 44.551C11.4215 44.5368 11.4812 44.5254 11.5238 44.5169L11.7539 45.5694C11.68 45.5978 11.5749 45.6263 11.4386 45.6547C11.3022 45.6859 11.1317 45.703 10.9272 45.7058C10.592 45.7115 10.2795 45.6518 9.9897 45.5268C9.69993 45.4018 9.46555 45.2086 9.28658 44.9473C9.1076 44.6859 9.01811 44.3578 9.01811 43.9629V37.5069ZM14.9489 45.7655C14.5341 45.7655 14.1591 45.6888 13.8239 45.5353C13.4886 45.3791 13.223 45.1532 13.027 44.8578C12.8338 44.5623 12.7372 44.2001 12.7372 43.7711C12.7372 43.4018 12.8082 43.0978 12.9503 42.8592C13.0923 42.6206 13.2841 42.4317 13.5256 42.2924C13.767 42.1532 14.0369 42.0481 14.3352 41.9771C14.6335 41.9061 14.9375 41.8521 15.2472 41.8152C15.6392 41.7697 15.9574 41.7328 16.2017 41.7044C16.446 41.6731 16.6236 41.6234 16.7344 41.5552C16.8452 41.4871 16.9006 41.3763 16.9006 41.2228V41.193C16.9006 40.8209 16.7955 40.5325 16.5852 40.328C16.3778 40.1234 16.0682 40.0211 15.6562 40.0211C15.2273 40.0211 14.8892 40.1163 14.642 40.3067C14.3977 40.4942 14.2287 40.703 14.1349 40.9331L12.9375 40.6603C13.0795 40.2626 13.2869 39.9416 13.5597 39.6973C13.8352 39.4501 14.152 39.2711 14.5099 39.1603C14.8679 39.0467 15.2443 38.9899 15.6392 38.9899C15.9006 38.9899 16.1776 39.0211 16.4702 39.0836C16.7656 39.1433 17.0412 39.2541 17.2969 39.416C17.5554 39.578 17.767 39.8095 17.9318 40.1106C18.0966 40.4089 18.179 40.7967 18.179 41.274V45.6206H16.9347V44.7257H16.8835C16.8011 44.8905 16.6776 45.0524 16.5128 45.2115C16.348 45.3706 16.1364 45.5027 15.8778 45.6078C15.6193 45.7129 15.3097 45.7655 14.9489 45.7655ZM15.2259 44.7427C15.5781 44.7427 15.8793 44.6731 16.1293 44.5339C16.3821 44.3947 16.5739 44.2129 16.7045 43.9885C16.8381 43.7612 16.9048 43.5183 16.9048 43.2598V42.416C16.8594 42.4615 16.7713 42.5041 16.6406 42.5439C16.5128 42.5808 16.3665 42.6135 16.2017 42.6419C16.0369 42.6674 15.8764 42.6916 15.7202 42.7143C15.5639 42.7342 15.4332 42.7513 15.3281 42.7655C15.081 42.7967 14.8551 42.8493 14.6506 42.9231C14.4489 42.997 14.2869 43.1035 14.1648 43.2427C14.0455 43.3791 13.9858 43.5609 13.9858 43.7882C13.9858 44.1035 14.1023 44.3422 14.3352 44.5041C14.5682 44.6632 14.8651 44.7427 15.2259 44.7427ZM22.9315 39.0751V40.0978H19.3562V39.0751H22.9315ZM20.315 37.5069H21.5891V43.6987C21.5891 43.9459 21.6261 44.1319 21.6999 44.2569C21.7738 44.3791 21.869 44.4629 21.9854 44.5084C22.1048 44.551 22.234 44.5723 22.3732 44.5723C22.4755 44.5723 22.565 44.5652 22.6417 44.551C22.7184 44.5368 22.7781 44.5254 22.8207 44.5169L23.0508 45.5694C22.9769 45.5978 22.8718 45.6263 22.7354 45.6547C22.5991 45.6859 22.4286 45.703 22.2241 45.7058C21.8888 45.7115 21.5763 45.6518 21.2866 45.5268C20.9968 45.4018 20.7624 45.2086 20.5835 44.9473C20.4045 44.6859 20.315 44.3578 20.315 43.9629V37.5069ZM28.4872 42.9061V39.0751H29.7656V45.6206H28.5128V44.4871H28.4446C28.294 44.8365 28.0526 45.1277 27.7202 45.3606C27.3906 45.5907 26.9801 45.7058 26.4886 45.7058C26.0682 45.7058 25.696 45.6135 25.3722 45.4288C25.0511 45.2413 24.7983 44.9643 24.6136 44.5978C24.4318 44.2314 24.3409 43.7782 24.3409 43.2385V39.0751H25.6151V43.0851C25.6151 43.5311 25.7386 43.8862 25.9858 44.1504C26.233 44.4146 26.554 44.5467 26.9489 44.5467C27.1875 44.5467 27.4247 44.4871 27.6605 44.3677C27.8991 44.2484 28.0966 44.068 28.2528 43.8265C28.4119 43.5851 28.4901 43.2782 28.4872 42.9061ZM36.3825 40.6731L35.2276 40.8777C35.1793 40.7299 35.1026 40.5893 34.9975 40.4558C34.8952 40.3223 34.756 40.2129 34.5799 40.1277C34.4038 40.0424 34.1836 39.9998 33.9194 39.9998C33.5586 39.9998 33.2575 40.0808 33.016 40.2427C32.7745 40.4018 32.6538 40.6078 32.6538 40.8606C32.6538 41.0794 32.7347 41.2555 32.8967 41.389C33.0586 41.5226 33.32 41.6319 33.6808 41.7172L34.7205 41.9558C35.3228 42.095 35.7717 42.3095 36.0671 42.5993C36.3626 42.889 36.5103 43.2655 36.5103 43.7285C36.5103 44.1206 36.3967 44.47 36.1694 44.7768C35.945 45.0808 35.631 45.3194 35.2276 45.4927C34.8271 45.666 34.3626 45.7527 33.8342 45.7527C33.1012 45.7527 32.5032 45.5964 32.0401 45.2839C31.5771 44.9686 31.293 44.5211 31.1879 43.9416L32.4194 43.7541C32.4961 44.0751 32.6538 44.318 32.8924 44.4828C33.131 44.6447 33.4421 44.7257 33.8256 44.7257C34.2433 44.7257 34.5771 44.639 34.8271 44.4657C35.0771 44.2896 35.2021 44.0751 35.2021 43.8223C35.2021 43.6177 35.1254 43.4459 34.9719 43.3067C34.8214 43.1674 34.5898 43.0623 34.2773 42.9913L33.1694 42.7484C32.5586 42.6092 32.1069 42.3876 31.8143 42.0836C31.5245 41.7797 31.3796 41.3947 31.3796 40.9288C31.3796 40.5424 31.4876 40.2044 31.7035 39.9146C31.9194 39.6248 32.2177 39.399 32.5984 39.2371C32.979 39.0723 33.4151 38.9899 33.9066 38.9899C34.614 38.9899 35.1708 39.1433 35.5771 39.4501C35.9833 39.7541 36.2518 40.1618 36.3825 40.6731Z" fill="black"/>
</svg>
