<svg width="35" height="35" viewBox="0 0 35 35" fill="none" xmlns="http://www.w3.org/2000/svg">
<path fill-rule="evenodd" clip-rule="evenodd" d="M0.550991 0.525034C-0.173405 1.23509 -0.185025 2.39795 0.525036 3.12235L7.79602 10.5401H5.17746C3.22959 10.5401 1.65058 12.0672 1.65058 14.0334V21.2205C1.65058 23.1199 3.22959 24.7138 5.17746 24.7138H11.337L21.249 33.6063C21.6891 34.0003 22.247 34.2066 22.8119 34.2066C23.1352 34.2066 23.407 34.1398 23.7788 33.9292C24.624 33.5473 25.1631 32.7003 25.1631 31.7665V28.2579L31.2317 34.449C31.9418 35.1734 33.1046 35.185 33.829 34.475C34.5534 33.7649 34.565 32.602 33.855 31.8776L3.1483 0.550993C2.43824 -0.173404 1.27539 -0.185026 0.550991 0.525034ZM25.1631 3.35342V21.3764L13.0423 9.01089L21.2498 1.6476C21.942 1.02646 22.9346 0.872562 23.7796 1.25756C24.6267 1.50668 25.1631 2.41967 25.1631 3.35342Z" fill="white"/>
</svg>
