<svg width="36" height="33" viewBox="0 0 36 33" fill="none" xmlns="http://www.w3.org/2000/svg">
<path fill-rule="evenodd" clip-rule="evenodd" d="M23.997 2.27653V30.3321C23.997 31.2541 23.4648 32.0904 22.6305 32.4676C22.2634 32.6756 21.995 32.7415 21.6759 32.7415C21.1182 32.7415 20.5675 32.5378 20.1331 32.1487L10.348 23.3681H4.26735C2.34443 23.3681 0.785645 21.7943 0.785645 19.9188V12.8221C0.785645 10.8807 2.34443 9.37281 4.26735 9.37281H10.3487L20.1338 0.59217C20.8172 -0.0211566 21.797 -0.173115 22.6312 0.207038C23.4675 0.453027 23.997 1.35453 23.997 2.27653ZM25.187 24.083C28.0105 22.6646 29.9481 19.742 29.9481 16.3668C29.9481 12.9917 28.0105 10.0691 25.187 8.65063V24.083ZM35.6024 16.0694C35.6024 23.1168 31.3046 29.1603 25.187 31.722V27.0662C28.9295 24.8333 31.4362 20.7441 31.4362 16.0694C31.4362 11.3948 28.9295 7.3056 25.187 5.07272V0.416832C31.3046 2.97856 35.6024 9.0221 35.6024 16.0694Z" fill="white"/>
</svg>
